<svg width="54" height="53" viewBox="0 0 54 53" fill="none" xmlns="http://www.w3.org/2000/svg">
<path d="M3.51849 48.0397H3.10681V44.9802H5.14384V45.3598H3.51849V48.0397ZM3.47572 46.425H4.96206V46.7989H3.47572V46.425Z" fill="white"/>
<path d="M9.13235 48.0737C8.91315 48.0737 8.70998 48.034 8.52285 47.9547C8.33572 47.8754 8.16998 47.7677 8.03632 47.6261C7.89731 47.4844 7.79038 47.3201 7.71552 47.1332C7.64067 46.9462 7.5979 46.7366 7.5979 46.5156C7.5979 46.289 7.63533 46.085 7.71552 45.898C7.79038 45.7111 7.89731 45.5468 8.03632 45.4051C8.17533 45.2635 8.33572 45.1558 8.52285 45.0765C8.70998 44.9972 8.91315 44.9575 9.1377 44.9575C9.35691 44.9575 9.56008 44.9972 9.74721 45.0708C9.93433 45.1502 10.0947 45.2578 10.2337 45.3994C10.3728 45.5411 10.4797 45.7054 10.5545 45.8924C10.6294 46.0793 10.6668 46.289 10.6668 46.5156C10.6668 46.7422 10.6294 46.9519 10.5545 47.1388C10.4797 47.3258 10.3728 47.4958 10.2337 47.6317C10.0947 47.7734 9.93433 47.881 9.74721 47.9603C9.55473 48.034 9.35156 48.0737 9.13235 48.0737ZM9.13235 47.6827C9.29275 47.6827 9.43711 47.6544 9.57612 47.5977C9.70978 47.5411 9.83275 47.4561 9.92899 47.3485C10.0306 47.2408 10.1054 47.1162 10.1642 46.9745C10.223 46.8329 10.2498 46.6742 10.2498 46.5099C10.2498 46.3456 10.223 46.187 10.1642 46.0453C10.1054 45.9037 10.0306 45.7791 9.92899 45.6714C9.82741 45.5638 9.70978 45.4844 9.57612 45.4221C9.44245 45.3655 9.29275 45.3371 9.13235 45.3371C8.97196 45.3371 8.82226 45.3655 8.68325 45.4221C8.54958 45.4788 8.42661 45.5638 8.32503 45.6714C8.22344 45.7791 8.14325 45.9037 8.08978 46.0453C8.03097 46.187 8.00424 46.3456 8.00424 46.5099C8.00424 46.6742 8.03097 46.8329 8.08978 46.9745C8.14325 47.1162 8.22344 47.2408 8.32503 47.3485C8.42661 47.4561 8.54424 47.5354 8.68325 47.5977C8.82226 47.6544 8.97196 47.6827 9.13235 47.6827Z" fill="white"/>
<path d="M14.6286 48.0737C14.249 48.0737 13.9495 47.9604 13.7357 47.7281C13.5165 47.4958 13.4095 47.1615 13.4095 46.7196V44.9802H13.8212V46.7026C13.8212 47.0425 13.8907 47.2918 14.0351 47.4505C14.1741 47.6091 14.3773 47.6884 14.6339 47.6884C14.8959 47.6884 15.0937 47.6091 15.2381 47.4505C15.3771 47.2918 15.4519 47.0425 15.4519 46.7026V44.9802H15.8529V46.7196C15.8529 47.1615 15.746 47.4958 15.5321 47.7281C15.3076 47.9604 15.0082 48.0737 14.6286 48.0737Z" fill="white"/>
<path d="M18.8309 48.0397V44.9802H19.1678L21.0765 47.4901H20.9V44.9802H21.3117V48.0397H20.9749L19.0662 45.5298H19.2426V48.0397H18.8309Z" fill="white"/>
<path d="M24.3164 48.0397V44.9802H25.5301C25.8402 44.9802 26.1075 45.0425 26.3427 45.1729C26.578 45.3032 26.7598 45.4788 26.8881 45.7111C27.0164 45.9434 27.0859 46.2097 27.0859 46.51C27.0859 46.8103 27.0218 47.0765 26.8881 47.3088C26.7598 47.5411 26.5726 47.7168 26.3427 47.8471C26.1075 47.9774 25.8348 48.0397 25.5301 48.0397H24.3164ZM24.7334 47.6601H25.514C25.7546 47.6601 25.9578 47.6148 26.1342 47.5185C26.3107 47.4221 26.4443 47.2862 26.5406 47.1162C26.6368 46.9406 26.6849 46.7423 26.6849 46.5156C26.6849 46.2833 26.6368 46.085 26.5406 45.9151C26.4443 45.7451 26.3107 45.6091 26.1342 45.5128C25.9578 45.4165 25.7546 45.3712 25.514 45.3712H24.7334V47.6601Z" fill="white"/>
<path d="M29.385 48.0397L30.6896 44.9802H31.0959L32.4058 48.034H31.9727L30.8072 45.2238H30.9729L29.8074 48.0397H29.385ZM29.9411 47.2748L30.0533 46.9236H31.6787L31.7963 47.2748H29.9411Z" fill="white"/>
<path d="M35.4052 48.0397V45.3655H34.4161V44.9802H36.8007V45.3598H35.8116V48.0397H35.4052Z" fill="white"/>
<path d="M39.3937 48.0397V44.9802H39.8054V48.0397H39.3937Z" fill="white"/>
<path d="M44.1147 48.0737C43.8954 48.0737 43.6923 48.034 43.5052 47.9547C43.318 47.8754 43.1523 47.7677 43.0186 47.6261C42.8796 47.4844 42.7727 47.3201 42.6978 47.1332C42.623 46.9462 42.5802 46.7366 42.5802 46.5156C42.5802 46.289 42.6176 46.085 42.6978 45.898C42.7727 45.7111 42.8796 45.5468 43.0186 45.4051C43.1576 45.2635 43.318 45.1558 43.5052 45.0765C43.6923 44.9972 43.8954 44.9575 44.12 44.9575C44.3392 44.9575 44.5424 44.9972 44.7295 45.0708C44.9166 45.1502 45.077 45.2578 45.216 45.3994C45.3551 45.5411 45.462 45.7054 45.5368 45.8924C45.6117 46.0793 45.6491 46.289 45.6491 46.5156C45.6491 46.7422 45.6117 46.9519 45.5368 47.1388C45.462 47.3258 45.3551 47.4958 45.216 47.6317C45.077 47.7734 44.9166 47.881 44.7295 47.9603C44.537 48.034 44.3339 48.0737 44.1147 48.0737ZM44.1147 47.6827C44.275 47.6827 44.4194 47.6544 44.5584 47.5977C44.6921 47.5411 44.8151 47.4561 44.9113 47.3485C45.0129 47.2408 45.0877 47.1162 45.1465 46.9745C45.2053 46.8329 45.2321 46.6742 45.2321 46.5099C45.2321 46.3456 45.2053 46.187 45.1465 46.0453C45.0877 45.9037 45.0129 45.7791 44.9113 45.6714C44.8097 45.5638 44.6921 45.4844 44.5584 45.4221C44.4248 45.3655 44.275 45.3371 44.1147 45.3371C43.9543 45.3371 43.8046 45.3655 43.6655 45.4221C43.5319 45.4788 43.4089 45.5638 43.3073 45.6714C43.2057 45.7791 43.1255 45.9037 43.0721 46.0453C43.0186 46.187 42.9865 46.3456 42.9865 46.5099C42.9865 46.6742 43.0133 46.8329 43.0721 46.9745C43.1309 47.1162 43.2057 47.2408 43.3073 47.3485C43.4089 47.4561 43.5265 47.5354 43.6655 47.5977C43.8046 47.6544 43.9543 47.6827 44.1147 47.6827Z" fill="white"/>
<path d="M48.4187 48.0397V44.9802H48.7555L50.6642 47.4901H50.4878V44.9802H50.8995V48.0397H50.5627L48.6539 45.5298H48.8304V48.0397H48.4187Z" fill="white"/>
<path d="M6.83301 52H47.1673" stroke="white" stroke-miterlimit="10"/>
<path d="M18.7075 39.6544C8.39406 39.6544 0 30.7592 0 19.8243C0 8.88951 8.39406 0 18.7075 0C23.204 0 27.5507 1.71671 30.9511 4.83286C31.336 5.18413 31.5659 5.67138 31.598 6.20396C31.6354 6.73654 31.4697 7.25778 31.1382 7.66005C30.78 8.10198 30.256 8.35127 29.7053 8.35127C29.2509 8.35127 28.8071 8.17563 28.4649 7.85835C25.7596 5.3711 22.2897 4.00566 18.7022 4.00566C10.4846 4.01699 3.79069 11.1105 3.79069 19.8243C3.79069 28.5382 10.4846 35.6374 18.7129 35.6374C20.1671 35.6374 21.6 35.4164 22.9794 34.9801C23.1558 34.9235 23.3376 34.8952 23.5194 34.8952C24.3481 34.8952 25.0966 35.4844 25.3372 36.3286C25.6366 37.3881 25.0646 38.5099 24.0647 38.8272C22.3271 39.3767 20.5307 39.6544 18.7075 39.6544Z" fill="white"/>
<path d="M53.9999 29.3143C53.9999 32.2039 52.9948 34.8158 51.1663 36.6798C49.1346 38.7534 46.1512 39.8526 42.5316 39.8526H27.6576V24.5948H12.3504C11.3506 24.5948 10.5219 23.8129 10.431 22.7818C10.3776 22.2209 10.554 21.6543 10.9176 21.235C11.2758 20.8158 11.7837 20.5778 12.3184 20.5778H29.5609C30.0849 20.5778 30.5554 20.8044 30.9029 21.167C31.2451 21.5296 31.4589 22.0339 31.4589 22.5891V35.8413H42.5423C48.4235 35.8413 50.1879 31.5013 50.1879 28.2605C50.1879 24.8101 47.135 20.6798 42.5423 20.6798H39.5162C39.4948 20.6798 39.4734 20.6798 39.452 20.6798C39.4199 20.6798 39.3879 20.6741 39.3611 20.6741C39.3237 20.6685 39.2863 20.6685 39.2488 20.6628C38.9869 20.6231 38.7409 20.5212 38.5271 20.3852C38.4789 20.3512 38.4308 20.3229 38.3881 20.2889L38.3827 20.2832C38.3399 20.2492 38.2972 20.2095 38.2544 20.1755C38.1795 20.1076 38.1154 20.0339 38.0512 19.9546C38.0245 19.9206 37.9978 19.8809 37.971 19.8413C37.955 19.8186 37.9389 19.7959 37.9229 19.7733C37.8855 19.7166 37.8534 19.6543 37.8267 19.592C37.816 19.5693 37.7999 19.541 37.7839 19.5013C37.7465 19.422 37.6823 19.252 37.6449 19.0197C37.6288 18.9121 37.6182 18.7988 37.6182 18.6855C37.6182 18.0906 37.8641 17.558 38.249 17.1897C38.2811 17.1614 38.3132 17.1274 38.3506 17.0991C38.5057 16.9744 38.6768 16.8724 38.8585 16.7988C38.8906 16.7874 38.9174 16.7761 38.9494 16.7648C38.9762 16.7535 39.0082 16.7478 39.035 16.7365C39.0671 16.7251 39.1045 16.7195 39.1419 16.7081C39.19 16.6968 39.2328 16.6911 39.2863 16.6855C39.3611 16.6741 39.436 16.6741 39.5108 16.6741H42.4514C44.2906 16.6741 45.7556 16.0339 46.8142 14.7761C47.7498 13.66 48.2845 12.0906 48.2845 10.4702C48.2845 7.6883 46.7286 4.43052 42.3552 4.43052H38.757C37.7144 4.43052 36.8643 3.52967 36.8643 2.42485C36.8643 1.32004 37.7144 0.419189 38.757 0.419189H42.3552C48.7389 0.419189 52.0752 5.47867 52.0752 10.4758C52.0752 13.1104 51.209 15.5976 49.6318 17.4673C49.295 17.8696 48.9261 18.2379 48.5358 18.5665C49.4019 19.167 50.2039 19.9036 50.9203 20.7704C52.8772 23.1274 53.9999 26.2435 53.9999 29.3143Z" fill="white"/>
<path d="M39.2383 20.6629C38.9763 20.6232 38.7303 20.5269 38.5165 20.3853C38.7303 20.5212 38.9763 20.6175 39.2383 20.6629Z" fill="white"/>
</svg>