<svg width="80" height="80" viewBox="0 0 80 80" fill="none" xmlns="http://www.w3.org/2000/svg">
<circle cx="40" cy="40" r="40" fill="#E16162"/>
<path d="M27.5 27.5C27.5 24.7386 29.7386 22.5 32.5 22.5C35.2614 22.5 37.5 24.7386 37.5 27.5C37.5 29.1119 36.7373 30.5457 35.553 31.46C35.5174 31.4863 35.482 31.5129 35.4468 31.5398C34.6205 32.1436 33.6018 32.5 32.5 32.5C29.7386 32.5 27.5 30.2614 27.5 27.5ZM32.5 25C31.1193 25 30 26.1193 30 27.5C30 28.8807 31.1193 30 32.5 30C33.8807 30 35 28.8807 35 27.5C35 26.1193 33.8807 25 32.5 25ZM44.447 31.46C43.2628 30.5457 42.5 29.1119 42.5 27.5C42.5 24.7386 44.7386 22.5 47.5 22.5C50.2615 22.5 52.5 24.7386 52.5 27.5C52.5 30.2614 50.2615 32.5 47.5 32.5C46.3983 32.5 45.3795 32.1436 44.5532 31.5398C44.518 31.5129 44.4826 31.4863 44.447 31.46ZM47.5 25C46.1192 25 45 26.1193 45 27.5C45 28.8807 46.1192 30 47.5 30C48.8808 30 50 28.8807 50 27.5C50 26.1193 48.8808 25 47.5 25ZM26.2499 35H32.9268C32.6504 35.7819 32.5 36.6234 32.5 37.5H26.2499C25.5597 37.5 25 38.0597 25 38.75C25 40.7923 25.8113 42.3068 27.0953 43.3374C27.6856 43.8112 28.3926 44.195 29.1918 44.4739C28.6113 45.0925 28.1553 45.8293 27.8637 46.644C27.0138 46.2983 26.2275 45.8465 25.5304 45.287C23.6474 43.7757 22.5 41.5402 22.5 38.75C22.5 36.679 24.1789 35 26.2499 35ZM35.6689 35C35.2435 35.7354 35 36.5893 35 37.5C35 39.6089 36.3056 41.4128 38.1525 42.1476C38.7241 42.375 39.3474 42.5 40 42.5C40.6526 42.5 41.276 42.375 41.8475 42.1476C43.6945 41.4128 45 39.6089 45 37.5C45 36.5893 44.7565 35.7354 44.3311 35C43.4666 33.5055 41.8507 32.5 40 32.5C38.1493 32.5 36.5334 33.5055 35.6689 35ZM39.4391 35.0632C39.6194 35.0218 39.8071 35 40 35C40.1929 35 40.3806 35.0218 40.5609 35.0632C41.6716 35.3178 42.5 36.3122 42.5 37.5C42.5 37.6929 42.4782 37.8806 42.4368 38.0609C42.1822 39.1716 41.1879 40 40 40C38.8121 40 37.8178 39.1716 37.5632 38.0609C37.5218 37.8806 37.5 37.6929 37.5 37.5C37.5 36.3122 38.3285 35.3178 39.4391 35.0632ZM52.9047 43.3374C52.3145 43.8112 51.6075 44.195 50.8083 44.4739C51.3888 45.0925 51.8447 45.8293 52.1362 46.644C52.9862 46.2983 53.7725 45.8465 54.4697 45.287C56.3525 43.7757 57.5 41.5402 57.5 38.75C57.5 36.6789 55.821 35 53.75 35H47.0732C47.3495 35.7819 47.5 36.6234 47.5 37.5H53.75C54.4403 37.5 55 38.0597 55 38.75C55 40.7923 54.1887 42.3068 52.9047 43.3374ZM46.25 45C47.8148 45 49.1555 45.9583 49.7178 47.32C49.8995 47.7608 50 48.2437 50 48.75C50 51.5403 48.8525 53.7758 46.9697 55.287C45.1165 56.7745 42.6327 57.5 40 57.5C37.3673 57.5 34.8836 56.7745 33.0304 55.287C31.1474 53.7758 30 51.5403 30 48.75C30 48.2437 30.1004 47.7608 30.2823 47.32C30.8444 45.9583 32.1853 45 33.75 45H46.25ZM46.25 47.5H33.75C33.0597 47.5 32.5 48.0597 32.5 48.75C32.5 50.7922 33.3113 52.3067 34.5953 53.3372C35.9089 54.3918 37.8002 55 40 55C42.1998 55 44.091 54.3918 45.4047 53.3372C46.6887 52.3067 47.5 50.7922 47.5 48.75C47.5 48.0597 46.9403 47.5 46.25 47.5Z" fill="white"/>
</svg>
