<svg width="80" height="80" viewBox="0 0 80 80" fill="none" xmlns="http://www.w3.org/2000/svg">
<circle cx="40" cy="40" r="40" fill="#C2EADE"/>
<path fill-rule="evenodd" clip-rule="evenodd" d="M42.3299 21.8186C41.7199 19.3938 38.2776 19.3938 37.6701 21.8186L37.4927 22.5336C37.2812 23.3797 36.6273 24.0445 35.7847 24.27C34.9422 24.4954 34.0437 24.246 33.4379 23.6185L32.9254 23.0911C31.1881 21.2937 28.2057 23.0186 28.8932 25.4184L29.0957 26.1284C29.3343 26.9662 29.1001 27.8676 28.4838 28.4833C27.8676 29.0991 26.966 29.3325 26.1284 29.0932L25.4184 28.8932C23.0161 28.2057 21.2937 31.1881 23.0911 32.9254L23.6185 33.4379C24.246 34.0437 24.4954 34.9422 24.27 35.7847C24.0445 36.6273 23.3797 37.2812 22.5336 37.4927L21.8186 37.6701C19.3938 38.2801 19.3938 41.7224 21.8186 42.3299L22.5336 42.5073C23.3797 42.7188 24.0445 43.3727 24.27 44.2153C24.4954 45.0578 24.246 45.9563 23.6185 46.5621L23.0911 47.0746C21.2937 48.812 23.0186 51.7943 25.4184 51.1068L26.1284 50.9043C26.9662 50.6657 27.8676 50.8999 28.4833 51.5162C29.0991 52.1324 29.3325 53.034 29.0932 53.8716L28.8932 54.5816C28.2057 56.9839 31.1881 58.7063 32.9254 56.9089L33.4379 56.3815C34.0437 55.754 34.9422 55.5046 35.7847 55.73C36.6273 55.9555 37.2812 56.6203 37.4927 57.4664L37.6701 58.1814C38.2801 60.6062 41.7224 60.6062 42.3299 58.1814L42.5073 57.4664C42.7188 56.6203 43.3727 55.9555 44.2153 55.73C45.0578 55.5046 45.9563 55.754 46.5621 56.3815L47.0746 56.9089C48.812 58.7063 51.7943 56.9814 51.1068 54.5816L50.9043 53.8741C50.6646 53.0359 50.8982 52.1336 51.5147 51.5172C52.1311 50.9007 53.0334 50.6671 53.8716 50.9068L54.5816 51.1068C56.9839 51.7943 58.7063 48.812 56.9089 47.0746L56.3815 46.5621C55.754 45.9563 55.5046 45.0578 55.73 44.2153C55.9555 43.3727 56.6203 42.7188 57.4664 42.5073L58.1814 42.3299C60.6062 41.7199 60.6062 38.2776 58.1814 37.6701L57.4664 37.4927C56.6203 37.2812 55.9555 36.6273 55.73 35.7847C55.5046 34.9422 55.754 34.0437 56.3815 33.4379L56.9089 32.9254C58.7063 31.1881 56.9814 28.2057 54.5816 28.8932L53.8741 29.0957C53.0359 29.3354 52.1336 29.1018 51.5172 28.4853C50.9007 27.8689 50.6671 26.9666 50.9068 26.1284L51.1068 25.4184C51.7943 23.0161 48.812 21.2937 47.0746 23.0911L46.5621 23.6185C45.9563 24.246 45.0578 24.4954 44.2153 24.27C43.3727 24.0445 42.7188 23.3797 42.5073 22.5336L42.3299 21.8186ZM40.6252 41.25H52.432C52.004 45.5136 49.4209 49.2604 45.5884 51.177C41.7559 53.0935 37.2085 52.9123 33.5406 50.6969L40.6252 41.25ZM52.432 38.75C52.004 34.4864 49.4209 30.7395 45.5884 28.823C41.7559 26.9065 37.2085 27.0877 33.5406 29.3031L40.6252 38.7525H52.432V38.75ZM27.5055 40.0001C27.5019 36.5046 28.9668 33.1685 31.5427 30.8057L38.4373 40.0001L31.5427 49.1945C29.0604 46.9122 27.5055 43.6374 27.5055 40.0001Z" fill="white"/>
</svg>
