<svg width="24" height="24" viewBox="0 0 24 24" fill="none" xmlns="http://www.w3.org/2000/svg">
<path d="M23.6425 4.93695C22.8075 5.30695 21.9105 5.55696 20.9675 5.66996C21.9405 5.08775 22.6685 4.17142 23.0155 3.09195C22.1014 3.63494 21.1009 4.01715 20.0575 4.22196C19.3559 3.47282 18.4266 2.97628 17.4138 2.80943C16.4011 2.64258 15.3616 2.81475 14.4568 3.29921C13.5519 3.78367 12.8323 4.55332 12.4097 5.48866C11.9871 6.424 11.8851 7.4727 12.1195 8.47195C10.2672 8.37895 8.45515 7.8975 6.80095 7.05886C5.14674 6.22022 3.68736 5.04312 2.51752 3.60396C2.11752 4.29396 1.88752 5.09396 1.88752 5.94596C1.88708 6.71295 2.07596 7.4682 2.4374 8.14469C2.79885 8.82118 3.32168 9.39799 3.95952 9.82396C3.2198 9.80042 2.4964 9.60054 1.84952 9.24095V9.30095C1.84945 10.3767 2.22156 11.4193 2.90271 12.252C3.58386 13.0846 4.53209 13.6559 5.58652 13.869C4.90031 14.0547 4.18086 14.082 3.48252 13.949C3.78002 14.8746 4.35952 15.684 5.13989 16.2639C5.92026 16.8438 6.86244 17.1651 7.83452 17.183C6.18436 18.4784 4.14641 19.181 2.04852 19.178C1.6769 19.1781 1.3056 19.1564 0.936523 19.113C3.066 20.4821 5.54486 21.2088 8.07652 21.206C16.6465 21.206 21.3315 14.108 21.3315 7.95195C21.3315 7.75196 21.3265 7.54995 21.3175 7.34995C22.2288 6.69093 23.0154 5.87485 23.6405 4.93995L23.6425 4.93695Z" fill="#FAFAFA"/>
</svg>
